<svg width="25" height="25" viewBox="0 0 25 25" fill="none" xmlns="http://www.w3.org/2000/svg">
<path d="M0 12.5C-2.89824e-07 15.8152 1.31696 18.9946 3.66116 21.3388C6.00537 23.683 9.18479 25 12.5 25L12.5 12.5L0 12.5Z" fill="#D0DDF4"/>
<path d="M25 0C21.6848 -3.95334e-08 18.5054 1.31696 16.1612 3.66116C13.817 6.00537 12.5 9.18479 12.5 12.5L25 12.5L25 0Z" fill="#0071CE"/>
<path d="M12.5 25C15.8152 25 18.9946 23.683 21.3388 21.3388C23.683 18.9946 25 15.8152 25 12.5L12.5 12.5L12.5 25Z" fill="#90B3E6"/>
<circle cx="6.25" cy="6.25" r="6.25" fill="#1ECAD3"/>
</svg>
